PathFileType	4	(X/Y/Z)	C:\Users\Biomechanik\SynologyDrive\AlexP\Athlete_03\Athlete_3_25_03_31\Walking_06\marker_experimental.trc
DataRate	CameraRate	NumFrames	NumMarkers	Units	OrigDataRate	OrigDataStartFrame	OrigNumFrames
200.000000	200.000000	4	53	mm	200.000000	0	445
Frame#	Time	GLAB			RFHD			LFHD			C7			T6			SPINMOL			SPINM2			SPINM3			T12			BELTOL			BELT2			BELT3			SACROL			SACR2			SACR3			LTHOL			LTH2			LTH3			LSHAOL			LSHA2			LSHA3			LHEE			LTOE			LM5			RTHOL			RTH2			RTH3			RSHAOL			RSHA2			RSHA3			RHEE			RTOE			RM5			STRN			XIPH			LACR			LUAOL			LUA2			LUA3			LLAOL			LLA2			LLA3			LWRR			LWRU			RACR			RUAOL			RUA2			RUA3			RLAOL			RLA2			RLA3			RWRR			RWRU			
		X1	Y1	Z1	X2	Y2	Z2	X3	Y3	Z3	X4	Y4	Z4	X5	Y5	Z5	X6	Y6	Z6	X7	Y7	Z7	X8	Y8	Z8	X9	Y9	Z9	X10	Y10	Z10	X11	Y11	Z11	X12	Y12	Z12	X13	Y13	Z13	X14	Y14	Z14	X15	Y15	Z15	X16	Y16	Z16	X17	Y17	Z17	X18	Y18	Z18	X19	Y19	Z19	X20	Y20	Z20	X21	Y21	Z21	X22	Y22	Z22	X23	Y23	Z23	X24	Y24	Z24	X25	Y25	Z25	X26	Y26	Z26	X27	Y27	Z27	X28	Y28	Z28	X29	Y29	Z29	X30	Y30	Z30	X31	Y31	Z31	X32	Y32	Z32	X33	Y33	Z33	X34	Y34	Z34	X35	Y35	Z35	X36	Y36	Z36	X37	Y37	Z37	X38	Y38	Z38	X39	Y39	Z39	X40	Y40	Z40	X41	Y41	Z41	X42	Y42	Z42	X43	Y43	Z43	X44	Y44	Z44	X45	Y45	Z45	X46	Y46	Z46	X47	Y47	Z47	X48	Y48	Z48	X49	Y49	Z49	X50	Y50	Z50	X51	Y51	Z51	X52	Y52	Z52	X53	Y53	Z53	

1	0	-431.8618164062502	1565.83837890625	239.8567352294921	-483.3721923828127	1591.828735351562	303.5262451171874	-473.0998535156252	1592.217163085938	166.2714691162109	-664.2810668945314	1413.706176757812	220.8920745849608	-727.4464721679689	1246.009643554688	219.1965942382811	-736.9463500976564	1205.135009765625	199.1507263183592	-741.5462036132814	1198.81396484375	248.9872283935545	-732.5821533203126	1141.435546875	216.4603118896483	-707.5354003906251	1075.561279296875	220.7406463623045	-746.8096923828126	1043.524291992188	213.0591430664061	-741.8701171875001	1039.515380859375	263.088165283203	-752.1199340820314	980.829345703125	232.8657073974608	-738.2715454101564	941.4830932617188	218.2001800537108	-727.6622314453126	933.7353515625	267.875518798828	-755.3822631835938	880.6520385742188	239.3432006835936	-731.9124145507812	681.1561279296875	45.1353836059569	-790.33251953125	644.5674438476562	85.08998107910142	-750.414794921875	625.2323608398438	63.04082107543932	-861.4251708984375	347.5601196289062	71.51563262939437	-928.9912109375	308.7296447753906	86.96063232421858	-882.3057250976562	290.3640441894531	82.42489624023422	-1016.475524902344	137.3707580566406	181.6024322509764	-821.0936889648438	39.45130538940425	184.6396026611327	-869.064453125	29.76512527465815	83.72969818115219	-558.2523193359376	641.5556640625	403.5300292968749	-484.991912841797	613.815185546875	415.9238891601561	-525.2516479492189	592.1447143554688	392.902618408203	-431.0436706542969	315.9106140136719	388.2698364257812	-370.2191772460938	267.6454772949219	395.0539550781249	-414.5285339355469	257.8735046386719	374.9237976074218	-329.2547302246094	47.01364898681638	280.9521789550781	-140.4855346679688	138.5556335449219	297.140380859375	-171.0171966552735	87.44932556152342	392.6704101562499	-497.5594787597657	1304.721069335938	225.2135009765624	-484.3956909179689	1161.660766601562	220.9476318359374	-585.1973876953126	1376.48583984375	51.46492767333974	-565.1838989257814	1231.136352539062	-52.97547149658214	-562.5554199218751	1168.94677734375	-73.87543487548838	-519.8759155273439	1185.022827148438	-52.68536758422861	-430.2058410644532	1005.414489746094	-98.4819869995118	-416.6814270019532	929.6781005859375	-78.98107910156257	-383.8935852050782	966.7566528320312	-88.32673645019538	-299.5113220214844	908.1847534179688	-70.61027526855474	-283.5341796875001	946.3561401367188	-3.239856243133597	-591.2473754882815	1365.331787109375	391.6139831542968	-638.8523559570315	1223.944213867188	488.8140258789061	-626.9583740234377	1160.43505859375	503.1000976562499	-676.891784667969	1172.51708984375	507.0599975585936	-683.4663085937502	955.3182373046875	554.3505859374999	-643.5625000000001	900.8120727539062	594.6264038085936	-681.1549682617189	893.1688842773438	563.2937622070311	-657.2034301757814	809.2380981445312	589.3366088867186	-608.1194458007814	784.7757568359375	529.0057373046874	
2	0.005	-427.8789978027345	1565.536987304688	240.4673767089843	-479.3860168457033	1591.479858398438	304.1574707031249	-469.1459350585939	1591.9208984375	166.8984069824218	-660.2063598632814	1413.3173828125	221.5303344726561	-723.3185424804689	1245.608276367188	219.7194061279295	-732.8046264648439	1204.741943359375	199.6465454101561	-737.3985595703126	1198.398193359375	249.4828491210936	-728.4253540039064	1141.030639648438	216.9245605468749	-703.3276367187501	1075.134033203125	221.1569824218749	-742.5911254882814	1042.980712890625	213.4696807861327	-737.6437988281251	1038.981201171875	263.4971923828124	-747.8345336914064	980.2818603515625	233.2774963378905	-733.9552612304689	940.9742431640625	218.5259704589842	-723.3298339843751	933.2310791015625	268.1962585449218	-751.0001831054688	880.1236572265625	239.6623535156249	-727.9564208984375	681.0303344726562	45.20484542846666	-786.3801879882812	644.498779296875	85.21984863281236	-746.5096435546875	625.1121826171875	63.12473297119127	-858.701416015625	348.1416320800781	71.35989379882797	-926.531982421875	309.8467712402343	86.78360748290999	-879.9524536132812	291.1335754394531	82.30366516113266	-1015.090148925781	139.2667541503906	181.3396301269529	-821.0696411132812	39.27477645874018	184.6981964111327	-868.7784423828125	29.81105995178217	83.66497802734359	-553.1881713867189	641.6083984375	403.9540405273436	-479.803192138672	613.8884887695312	415.9262084960936	-520.1922607421876	592.1338500976562	393.276153564453	-427.3924560546876	315.5135803222656	388.0750427246093	-366.8557739257813	266.77587890625	394.6652221679687	-411.3089599609376	257.4055786132812	374.6349487304687	-327.6713562011719	46.40611648559568	280.4711914062499	-138.2522888183594	136.0379791259766	296.4423522949219	-169.114715576172	85.4375762939453	392.0447082519531	-493.441375732422	1304.367065429688	225.7661132812499	-480.1801757812501	1161.333129882812	221.4065399169921	-581.1044921875001	1376.184692382812	52.07605361938466	-561.2148437500001	1230.867553710938	-52.38697814941417	-558.7044067382814	1168.669921875	-73.30342102050791	-516.0056762695314	1184.656372070312	-52.1557159423829	-426.5660400390626	1005.017639160156	-97.9877243041993	-413.0613708496094	929.2722778320312	-78.50816345214851	-380.2577819824219	966.3423461914062	-87.83796691894538	-295.8764038085938	907.760498046875	-70.13437652587896	-279.9215698242188	945.921630859375	-2.742541790008596	-587.1299438476565	1364.843017578125	392.2105712890624	-634.6900634765627	1223.3134765625	489.2565002441405	-622.8049316406252	1159.778930664062	503.4798889160155	-672.7173461914065	1171.859375	507.4324645996093	-679.4187622070315	954.6336059570312	554.4412841796874	-639.6231079101564	900.0404052734375	594.7459106445311	-677.1732177734376	892.4793701171875	563.3442993164061	-653.3402099609376	808.5242309570312	589.3642578124999	-604.2075805664064	784.0359497070312	529.0847167968749	
3	0.01	-423.3020324707033	1565.221801757812	241.1670532226562	-474.8034057617189	1591.113159179688	304.8812255859374	-464.602020263672	1591.6083984375	167.616714477539	-655.5245971679689	1412.897705078125	222.2728576660155	-718.5667724609376	1245.171875	220.3286743164061	-728.0346069335939	1204.313110351562	200.2236175537108	-732.6228637695314	1197.942626953125	250.0591888427733	-723.6339721679689	1140.589233398438	217.4662170410155	-698.4776000976564	1074.666259765625	221.6407775878905	-737.7082519531251	1042.36572265625	213.9326324462889	-732.7577514648439	1038.37939453125	263.9594116210936	-742.8696289062501	979.6630859375	233.743927001953	-728.9821166992189	940.4013061523438	218.8995666503905	-718.3386230468751	932.6725463867188	268.5664062499999	-745.9295654296875	879.5252685546875	240.0344238281249	-723.3497314453125	680.880126953125	45.29402542114244	-781.7671508789062	644.4031372070312	85.38591766357408	-741.9502563476562	624.9660034179688	63.22922515869127	-855.487060546875	348.8258361816406	71.17242431640609	-923.6192626953125	311.1540832519531	86.58709716796858	-877.1651611328125	292.0355224609374	82.15613555908187	-1013.373840332031	141.4937438964843	181.0403594970701	-821.047607421875	39.07494735717768	184.7717132568358	-868.4367065429688	29.87231445312495	83.59246826171859	-547.4356689453126	641.6919555664062	404.4249267578124	-473.9253540039064	613.9771118164062	415.9266662597655	-514.4522094726564	592.1372680664062	393.6957397460936	-423.2120361328126	315.1062622070312	387.8928527832031	-363.0130310058594	265.8384399414062	394.2599182128906	-407.6232910156251	256.9173889160156	374.3465270996093	-325.9305725097657	45.80356597900388	279.9674987792968	-135.7415771484376	133.1024932861328	295.6496276855469	-166.9962768554688	83.12467193603514	391.3462829589843	-488.7031555175782	1303.992553710938	226.4075927734374	-475.3215637207032	1160.992553710938	221.9433593749999	-576.3989257812501	1375.861938476562	52.78535079956044	-556.6476440429689	1230.58056640625	-51.70241928100596	-554.2799072265626	1168.378662109375	-72.64547729492197	-511.5576171875001	1184.250610351562	-51.53190994262705	-422.4166564941407	1004.564208984375	-97.41873931884773	-408.9465026855469	928.8046264648438	-77.96858978271491	-376.1195068359376	965.8606567382812	-87.28037261962898	-291.7476501464844	907.24951171875	-69.60161590576178	-275.8102111816407	945.3883056640625	-2.181462049484304	-582.3917236328127	1364.306884765625	392.9046020507811	-629.8872680664065	1222.60791015625	489.772735595703	-618.0115966796877	1159.045654296875	503.9215393066405	-667.9045410156252	1171.1220703125	507.8732604980468	-674.738464355469	953.8657836914062	554.5499267578124	-635.0625000000001	899.1746215820312	594.8813476562499	-672.5655517578126	891.7041625976562	563.4033813476561	-648.8653564453126	807.7210693359375	589.3914184570311	-599.6843261718751	783.208251953125	529.1638183593749	
4	0.015	-418.167205810547	1564.905029296875	241.9496002197265	-469.660125732422	1590.742553710938	305.6911621093749	-459.5041809082033	1591.291259765625	168.4199829101562	-650.2733154296876	1412.458862304688	223.1162719726561	-713.2265625000001	1244.711791992188	221.0218200683592	-722.6712036132814	1203.859375	200.8792419433592	-727.2543334960939	1197.458129882812	250.713409423828	-718.2419433593751	1140.12255859375	218.0829315185545	-693.0197143554689	1074.169311523438	222.1892547607421	-732.1893310546876	1041.688720703125	214.4414062499999	-727.2421875000001	1037.719604492188	264.4684753417968	-737.2528076171876	978.9825439453125	234.2588958740233	-723.3885498046876	939.7730102539062	219.3174896240233	-712.7252197265626	932.0713500976562	268.9830627441405	-740.2008666992188	878.8650512695312	240.4578857421874	-718.1107788085938	680.7047729492188	45.40524291992174	-776.5081787109375	644.2755126953125	85.59220123291001	-736.7509155273438	624.7921142578125	63.35596847534166	-851.780517578125	349.6119689941406	70.95167541503891	-920.2483520507812	312.6475219726562	86.3749923706053	-873.939453125	293.0675048828124	81.98073577880844	-1011.300354003906	144.0487670898437	180.707321166992	-821.0287475585938	38.85508346557612	184.8614807128905	-868.03759765625	29.95164871215815	83.51353454589828	-541.0629272460939	641.8132934570312	404.9338989257811	-467.4324645996095	614.08154296875	415.9263916015624	-508.1006774902345	592.1607666015625	394.1549377441405	-418.5392761230469	314.7087707519531	387.7382202148437	-358.7259826660157	264.8604125976562	393.8542480468749	-403.5038452148438	256.4300842285156	374.0752258300781	-324.0671081542969	45.24038314819334	279.4602966308593	-132.9881591796876	129.7633666992188	294.7732543945312	-164.6973724365235	80.53103637695311	390.5881652832031	-483.3808898925782	1303.611083984375	227.1346893310546	-469.8544921875001	1160.653198242188	222.556655883789	-571.1179199218751	1375.527587890625	53.58901596069325	-551.5170898437501	1230.284790039062	-50.92487335205088	-549.3168945312501	1168.083618164062	-71.90689086914072	-506.5673217773438	1183.8134765625	-50.81435012817392	-417.8007507324219	1004.058959960938	-96.77938842773445	-404.3833312988282	928.2786254882812	-77.36788177490241	-371.5237426757813	965.3135375976562	-86.65986633300788	-287.1729125976563	906.6489868164062	-69.02070617675787	-271.2450256347657	944.7501831054688	-1.56445050239568	-577.068542480469	1363.735595703125	393.6930847167968	-624.4761352539065	1221.839599609375	490.3608093261718	-612.6105957031252	1158.247802734375	504.4232177734374	-662.4866943359377	1170.317504882812	508.3826293945311	-669.4536743164065	953.0269165039062	554.6770629882811	-629.9064941406251	898.2283325195312	595.0310668945311	-667.3585815429689	890.8550415039062	563.4709472656249	-643.8035278320314	806.8404541015625	589.4164428710936	-594.5770263671876	782.3063354492188	529.2385864257811	
